<svg width="14" height="10" viewBox="0 0 14 10" fill="none" xmlns="http://www.w3.org/2000/svg">
<path opacity="0.4" fill-rule="evenodd" clip-rule="evenodd" d="M13.5303 5.53033C13.8232 5.23744 13.8232 4.76256 13.5303 4.46967L9.53033 0.46967C9.23744 0.176777 8.76256 0.176777 8.46967 0.469671C8.17678 0.762563 8.17678 1.23744 8.46967 1.53033L11.1893 4.25L1 4.25C0.585787 4.25 0.25 4.58579 0.25 5C0.25 5.41421 0.585787 5.75 1 5.75L11.1893 5.75L8.46967 8.46967C8.17678 8.76256 8.17678 9.23744 8.46967 9.53033C8.76256 9.82322 9.23744 9.82322 9.53033 9.53033L13.5303 5.53033Z" fill="white"/>
<path d="M13.5303 4.46967C13.8232 4.76256 13.8232 5.23744 13.5303 5.53033L9.53033 9.53033C9.23744 9.82322 8.76256 9.82322 8.46967 9.53033C8.17678 9.23744 8.17678 8.76256 8.46967 8.46967L11.9708 5.00254L8.46967 1.53033C8.17678 1.23744 8.17678 0.762563 8.46967 0.46967C8.76256 0.176777 9.23744 0.176777 9.53033 0.46967L13.5303 4.46967Z" fill="white"/>
</svg>
