<svg width="20" height="20" viewBox="0 0 20 20" fill="none" xmlns="http://www.w3.org/2000/svg">
<path opacity="0.4" d="M20 10C20 15.5228 15.5228 20 10 20C4.47715 20 0 15.5228 0 10C0 4.47715 4.47715 0 10 0C15.5228 0 20 4.47715 20 10Z" fill="white"/>
<path fill-rule="evenodd" clip-rule="evenodd" d="M10 3.75C10.4142 3.75 10.75 4.08579 10.75 4.5V5.35352C11.9043 5.67998 12.75 6.74122 12.75 8C12.75 8.41421 12.4142 8.75 12 8.75C11.5858 8.75 11.25 8.41421 11.25 8C11.25 7.30964 10.6904 6.75 10 6.75C9.30964 6.75 8.75 7.30964 8.75 8C8.75 8.69036 9.30964 9.25 10 9.25C11.5188 9.25 12.75 10.4812 12.75 12C12.75 13.2588 11.9043 14.32 10.75 14.6465V15.5C10.75 15.9142 10.4142 16.25 10 16.25C9.58579 16.25 9.25 15.9142 9.25 15.5V14.6465C8.09575 14.32 7.25 13.2588 7.25 12C7.25 11.5858 7.58579 11.25 8 11.25C8.41421 11.25 8.75 11.5858 8.75 12C8.75 12.6904 9.30964 13.25 10 13.25C10.6904 13.25 11.25 12.6904 11.25 12C11.25 11.3096 10.6904 10.75 10 10.75C8.48122 10.75 7.25 9.51878 7.25 8C7.25 6.74122 8.09575 5.67998 9.25 5.35352V4.5C9.25 4.08579 9.58579 3.75 10 3.75Z" fill="white"/>
</svg>
