<svg width="134" height="120" viewBox="0 0 134 120" fill="none" xmlns="http://www.w3.org/2000/svg">
<circle cx="37.3984" cy="40.7598" r="37" fill="#FDD819"/>
<g filter="url(#filter0_b_4012_5049)">
<path fill-rule="evenodd" clip-rule="evenodd" d="M123.735 60.0007C123.735 87.2467 101.648 109.334 74.4017 109.334C47.1556 109.334 25.0684 87.2467 25.0684 60.0007C25.0684 32.7546 47.1556 10.6674 74.4017 10.6674C101.648 10.6674 123.735 32.7546 123.735 60.0007Z" fill="#FDD819" fill-opacity="0.35"/>
<path fill-rule="evenodd" clip-rule="evenodd" d="M123.735 60.0007C123.735 87.2467 101.648 109.334 74.4017 109.334C47.1556 109.334 25.0684 87.2467 25.0684 60.0007C25.0684 32.7546 47.1556 10.6674 74.4017 10.6674C101.648 10.6674 123.735 32.7546 123.735 60.0007Z" stroke="url(#paint0_linear_4012_5049)" stroke-width="1.48" stroke-linecap="round"/>
</g>
<g filter="url(#filter1_d_4012_5049)">
<path fill-rule="evenodd" clip-rule="evenodd" d="M74.4021 51.3673C76.4455 51.3673 78.1021 53.0239 78.1021 55.0673V84.6673C78.1021 86.7108 76.4455 88.3673 74.4021 88.3673C72.3586 88.3673 70.7021 86.7108 70.7021 84.6673V55.0673C70.7021 53.0239 72.3586 51.3673 74.4021 51.3673ZM74.4021 45.2007C77.1267 45.2007 79.3354 42.9919 79.3354 40.2673C79.3354 37.5427 77.1267 35.334 74.4021 35.334C71.6775 35.334 69.4688 37.5427 69.4688 40.2673C69.4688 42.9919 71.6775 45.2007 74.4021 45.2007Z" fill="url(#paint1_linear_4012_5049)"/>
</g>
<defs>
<filter id="filter0_b_4012_5049" x="-11.1919" y="-25.5926" width="171.186" height="171.187" filterUnits="userSpaceOnUse" color-interpolation-filters="sRGB">
<feFlood flood-opacity="0" result="BackgroundImageFix"/>
<feGaussianBlur in="BackgroundImageFix" stdDeviation="17.76"/>
<feComposite in2="SourceAlpha" operator="in" result="effect1_backgroundBlur_4012_5049"/>
<feBlend mode="normal" in="SourceGraphic" in2="effect1_backgroundBlur_4012_5049" result="shape"/>
</filter>
<filter id="filter1_d_4012_5049" x="64.6501" y="30.5154" width="29.1417" height="72.3078" filterUnits="userSpaceOnUse" color-interpolation-filters="sRGB">
<feFlood flood-opacity="0" result="BackgroundImageFix"/>
<feColorMatrix in="SourceAlpha" type="matrix" values="0 0 0 0 0 0 0 0 0 0 0 0 0 0 0 0 0 0 127 0" result="hardAlpha"/>
<feOffset dx="4.81863" dy="4.81863"/>
<feGaussianBlur stdDeviation="4.81863"/>
<feColorMatrix type="matrix" values="0 0 0 0 0.8 0 0 0 0 0.156863 0 0 0 0 0.32549 0 0 0 0.5 0"/>
<feBlend mode="normal" in2="BackgroundImageFix" result="effect1_dropShadow_4012_5049"/>
<feBlend mode="normal" in="SourceGraphic" in2="effect1_dropShadow_4012_5049" result="shape"/>
</filter>
<linearGradient id="paint0_linear_4012_5049" x1="25.0684" y1="10.6674" x2="123.785" y2="109.284" gradientUnits="userSpaceOnUse">
<stop stop-color="white" stop-opacity="0.25"/>
<stop offset="1" stop-color="white" stop-opacity="0"/>
</linearGradient>
<linearGradient id="paint1_linear_4012_5049" x1="74.4852" y1="99.6657" x2="100.328" y2="94.9527" gradientUnits="userSpaceOnUse">
<stop stop-color="white"/>
<stop offset="1" stop-color="white" stop-opacity="0.2"/>
</linearGradient>
</defs>
</svg>
