<svg width="34" height="34" viewBox="0 0 34 34" fill="none" xmlns="http://www.w3.org/2000/svg">
<path opacity="0.4" d="M31.1668 17C31.1668 24.8241 24.8242 31.1667 17.0002 31.1667C9.17613 31.1667 2.8335 24.8241 2.8335 17C2.8335 9.17601 9.17613 2.83337 17.0002 2.83337C24.8242 2.83337 31.1668 9.17601 31.1668 17Z" fill="white"/>
<path fill-rule="evenodd" clip-rule="evenodd" d="M17.0003 8.14587C17.5871 8.14587 18.0628 8.62157 18.0628 9.20837V10.4175C19.698 10.88 20.8962 12.3834 20.8962 14.1667C20.8962 14.7535 20.4205 15.2292 19.8337 15.2292C19.2469 15.2292 18.7712 14.7535 18.7712 14.1667C18.7712 13.1887 17.9783 12.3959 17.0003 12.3959C16.0223 12.3959 15.2295 13.1887 15.2295 14.1667C15.2295 15.1447 16.0223 15.9375 17.0003 15.9375C19.1519 15.9375 20.8962 17.6818 20.8962 19.8334C20.8962 21.6166 19.698 23.1201 18.0628 23.5826V24.7917C18.0628 25.3785 17.5871 25.8542 17.0003 25.8542C16.4135 25.8542 15.9378 25.3785 15.9378 24.7917V23.5826C14.3026 23.1201 13.1045 21.6166 13.1045 19.8334C13.1045 19.2466 13.5802 18.7709 14.167 18.7709C14.7538 18.7709 15.2295 19.2466 15.2295 19.8334C15.2295 20.8114 16.0223 21.6042 17.0003 21.6042C17.9783 21.6042 18.7712 20.8114 18.7712 19.8334C18.7712 18.8554 17.9783 18.0625 17.0003 18.0625C14.8487 18.0625 13.1045 16.3183 13.1045 14.1667C13.1045 12.3834 14.3026 10.88 15.9378 10.4175V9.20837C15.9378 8.62157 16.4135 8.14587 17.0003 8.14587Z" fill="white"/>
</svg>
