<svg width="34" height="34" viewBox="0 0 34 34" fill="none" xmlns="http://www.w3.org/2000/svg">
<path opacity="0.4" d="M5.66602 17.0001C5.66602 15.4353 6.93454 14.1667 8.49935 14.1667H21.2493C22.8142 14.1667 24.0827 15.4353 24.0827 17.0001C24.0827 18.5649 22.8142 19.8334 21.2493 19.8334H8.49935C6.93454 19.8334 5.66602 18.5649 5.66602 17.0001Z" fill="white"/>
<path d="M21.2493 19.8334H8.73546C7.04025 19.8334 5.66602 21.1019 5.66602 22.6667C5.66602 24.2315 7.04025 25.5 8.73546 25.5H21.2493C22.8142 25.5 24.0827 24.2315 24.0827 22.6667C24.0827 21.1019 22.8142 19.8334 21.2493 19.8334Z" fill="white"/>
<path opacity="0.4" d="M28.3333 25.5C28.3333 22.3704 25.7963 19.8334 22.6667 19.8334C22.3843 19.8334 22.1067 19.854 21.8354 19.8939C19.0999 20.2961 17 22.6528 17 25.5C17 28.6297 19.5371 31.1667 22.6667 31.1667C25.7963 31.1667 28.3333 28.6297 28.3333 25.5Z" fill="white"/>
<path fill-rule="evenodd" clip-rule="evenodd" d="M15.9362 4.81167L14.9167 5.83121C14.5017 6.24614 13.829 6.24614 13.4141 5.83121C12.9991 5.41627 12.9991 4.74354 13.4141 4.3286L15.2457 2.49701C16.2138 1.52883 17.7836 1.52883 18.7517 2.497L20.5833 4.3286C20.9983 4.74354 20.9983 5.41627 20.5833 5.83121C20.1684 6.24614 19.4957 6.24614 19.0807 5.83121L18.0612 4.81167L18.0612 9.91671C18.0612 10.5035 17.5855 10.9792 16.9987 10.9792C16.4119 10.9792 15.9362 10.5035 15.9362 9.91671L15.9362 4.81167Z" fill="white"/>
</svg>
